<?xml version="1.0" encoding="UTF-8" standalone="no"?>
<svg width="1120px" height="46px" viewBox="0 0 1120 46" version="1.1" xmlns="http://www.w3.org/2000/svg" xmlns:xlink="http://www.w3.org/1999/xlink" xmlns:sketch="http://www.bohemiancoding.com/sketch/ns">
    <!-- Generator: Sketch 3.5.2 (25235) - http://www.bohemiancoding.com/sketch -->
    <title>Page 1 Copy 2</title>
    <desc>Created with Sketch.</desc>
    <defs></defs>
    <g id="Page-1" stroke="none" stroke-width="1" fill="none" fill-rule="evenodd" sketch:type="MSPage">
        <g id="Page-1-Copy-2" sketch:type="MSArtboardGroup" transform="translate(-399.000000, -4519.000000)" fill="#999999">
            <g id="Group-3" sketch:type="MSLayerGroup" transform="translate(399.000000, 4519.000000)">
                <path d="M597.109721,20.4994203 C598.310821,22.8731779 598.987562,25.557474 598.987562,28.3998803 C598.987562,38.0749559 591.146795,45.9181543 581.47472,45.9181543 C571.802644,45.9181543 563.961878,38.0749559 563.961878,28.3998803 C563.961878,19.6375942 570.392968,12.3778358 578.791147,11.0859922 C580.2002,10.7031044 581.685594,10.4110199 583.22199,10.224297 C593.170732,9.01519644 595.750123,8.56705592 597.58723,7.75959198 C599.424337,6.95212803 603.723837,4.73684048 606,0.220977333 C606,0.220977333 605.651905,10.099282 602.005527,14.9997528 C600.781215,16.6451405 599.107724,18.5819563 597.10972,20.4994171 Z M523.890279,20.2784429 C522.689179,22.6522006 522.012438,25.3364967 522.012438,28.1789029 C522.012438,37.8539785 529.853205,45.697177 539.52528,45.697177 C549.197356,45.697177 557.038122,37.8539785 557.038122,28.1789029 C557.038122,19.4166169 550.607032,12.1568584 542.208853,10.8650148 C540.7998,10.482127 539.314406,10.1900425 537.77801,10.0033197 C527.829268,8.79421911 525.249877,8.34607859 523.41277,7.53861464 C521.575663,6.7311507 517.276163,4.51586315 515,0 C515,0 515.348095,9.87830463 518.994473,14.7787755 C520.218785,16.4241631 521.892276,18.360979 523.89028,20.2784397 Z M539.429581,36.2777168 C543.955278,36.2777168 547.624081,32.6077763 547.624081,28.0806752 C547.624081,23.5535741 543.955278,19.8836335 539.429581,19.8836335 C534.903884,19.8836335 531.235081,23.5535741 531.235081,28.0806752 C531.235081,32.6077763 534.903884,36.2777168 539.429581,36.2777168 Z M581.570419,36.4986941 C577.044722,36.4986941 573.375919,32.8287536 573.375919,28.3016525 C573.375919,23.7745514 577.044722,20.1046108 581.570419,20.1046108 C586.096116,20.1046108 589.764919,23.7745514 589.764919,28.3016525 C589.764919,32.8287536 586.096116,36.4986941 581.570419,36.4986941 Z" id="Path-Copy-18" sketch:type="MSShapeGroup"></path>
                <rect id="Rectangle-47" sketch:type="MSShapeGroup" x="0" y="24" width="500" height="5"></rect>
                <rect id="Rectangle-47" sketch:type="MSShapeGroup" x="620" y="24" width="500" height="5"></rect>
            </g>
        </g>
    </g>
</svg>